# xmcd
#
# Track frame offsets:
#	150
#	12113
#	24530
#	35413
#	46296
#	55959
#	67077
#	78454
#	87907
#	97491
#	117110
#	134672
#	149170
#	161458
#	174369
#	183328
#	194393
#	207435
#
# Disc length: 2916 seconds
#
# Revision: 1
# Processed by: cddbd v1.5.1PL2 Copyright (c) Steve Scherf et al.
# Submitted via: audiograbber 1.83.01
#
DISCID=080b6212
DTITLE=Marty Robbins - The Story Of My Life - The Best Of Marty Robbins
DYEAR=1996
DGENRE=Country
TTITLE0=I'll Go On Alone
TTITLE1=I Couldn't Keep From Crying
TTITLE2=I Can't Quit (I've Gone Too Far)
TTITLE3=Singing The Blues
TTITLE4=Knee Deep In The Blues
TTITLE5=A White Sport Coat (And A Pink Carnation)
TTITLE6=The Story Of My Life
TTITLE7=Just Married
TTITLE8=Stairway Of Love
TTITLE9=El Paso
TTITLE10=Big Iron
TTITLE11=Don't Worry
TTITLE12=It's Your World
TTITLE13=Devil Woman
TTITLE14=Ruby Ann
TTITLE15=Begging To You
TTITLE16=The Cowboy In The Continental Suit
TTITLE17=Ribbon Of Darkness
EXTD=
EXTT0=
EXTT1=
EXTT2=
EXTT3=
EXTT4=
EXTT5=
EXTT6=
EXTT7=
EXTT8=
EXTT9=
EXTT10=
EXTT11=
EXTT12=
EXTT13=
EXTT14=
EXTT15=
EXTT16=
EXTT17=
PLAYORDER=
